M48
; DRILL file {KiCad 9.0.2} date 2025-07-01T21:42:32+0200
; FORMAT={-:-/ absolute / metric / decimal}
; #@! TF.CreationDate,2025-07-01T21:42:32+02:00
; #@! TF.GenerationSoftware,Kicad,Pcbnew,9.0.2
; #@! TF.FileFunction,NonPlated,1,2,NPTH
FMAT,2
METRIC
; #@! TA.AperFunction,NonPlated,NPTH,ComponentDrill
T1C0.650
; #@! TA.AperFunction,NonPlated,NPTH,ComponentDrill
T2C1.750
; #@! TA.AperFunction,NonPlated,NPTH,ComponentDrill
T3C2.500
; #@! TA.AperFunction,NonPlated,NPTH,ComponentDrill
T4C3.988
%
G90
G05
T1
X39.88Y-21.65
X45.66Y-21.65
T2
X18.64Y-26.53
X18.64Y-55.105
X21.015Y-93.205
X21.021Y-112.255
X21.021Y-131.305
X23.402Y-74.155
X28.8Y-26.53
X28.8Y-55.105
X31.175Y-93.205
X31.181Y-112.255
X31.181Y-131.305
X33.562Y-74.155
X37.69Y-55.105
X42.453Y-112.255
X44.834Y-131.305
X47.215Y-74.155
X47.85Y-55.105
X51.977Y-93.205
X52.612Y-112.255
X54.994Y-131.305
X56.74Y-26.53
X56.74Y-55.105
X57.375Y-74.155
X61.502Y-112.255
X62.137Y-93.205
X66.265Y-74.155
X66.9Y-26.53
X66.9Y-55.105
X68.646Y-131.305
X71.028Y-93.205
X71.662Y-112.255
X75.79Y-26.53
X75.79Y-55.105
X76.425Y-74.155
X78.806Y-131.305
X80.552Y-112.255
X81.188Y-93.205
X85.315Y-74.155
X85.95Y-26.53
X85.95Y-55.105
X90.078Y-93.205
X90.712Y-112.255
X94.84Y-26.53
X94.84Y-55.105
X95.475Y-74.155
X99.602Y-112.255
X100.237Y-93.205
X104.365Y-74.155
X105.0Y-26.53
X105.0Y-55.105
X109.127Y-93.205
X109.762Y-112.255
X113.89Y-26.53
X113.89Y-55.105
X114.525Y-74.155
X118.652Y-112.255
X119.287Y-93.205
X123.415Y-74.155
X124.05Y-26.53
X124.05Y-55.105
X128.177Y-93.205
X128.812Y-112.255
X132.94Y-55.105
X133.575Y-74.155
X137.702Y-112.255
X138.338Y-93.205
X140.084Y-131.305
X142.465Y-26.53
X142.465Y-74.155
X143.1Y-55.105
X147.227Y-93.205
X147.862Y-112.255
X150.244Y-131.305
X151.99Y-55.105
X152.625Y-26.53
X152.625Y-74.155
X156.752Y-112.255
X157.387Y-93.205
X161.515Y-26.53
X161.515Y-74.155
X162.15Y-55.105
X166.278Y-93.205
X166.912Y-112.255
X171.04Y-55.105
X171.675Y-26.53
X171.675Y-74.155
X175.802Y-112.255
X176.438Y-93.205
X180.565Y-26.53
X180.565Y-74.155
X181.2Y-55.105
X185.327Y-93.205
X185.963Y-112.255
X190.09Y-55.105
X190.725Y-26.53
X190.725Y-74.155
X194.852Y-112.255
X195.487Y-93.205
X199.615Y-26.53
X199.615Y-74.155
X200.25Y-55.105
X204.377Y-93.205
X205.012Y-112.255
X209.14Y-55.105
X209.775Y-26.53
X209.775Y-74.155
X211.521Y-131.305
X213.903Y-112.255
X214.537Y-93.205
X218.665Y-74.155
X219.3Y-55.105
X221.681Y-131.305
X223.427Y-93.205
X224.062Y-112.255
X228.19Y-26.53
X228.19Y-55.105
X228.825Y-74.155
X232.952Y-112.255
X233.587Y-93.205
X235.334Y-131.305
X237.715Y-74.155
X238.35Y-26.53
X238.35Y-55.105
X242.477Y-93.205
X243.112Y-112.255
X245.494Y-131.305
X247.24Y-26.53
X247.24Y-55.105
X247.875Y-74.155
X252.637Y-93.205
X256.765Y-74.155
X257.4Y-26.53
X257.4Y-55.105
X259.146Y-131.305
X261.527Y-93.205
X266.29Y-26.53
X266.925Y-74.155
X268.671Y-112.255
X269.306Y-131.305
X271.688Y-93.205
X275.815Y-55.105
X276.45Y-26.53
X278.831Y-112.255
X282.959Y-83.68
X282.959Y-131.305
X285.34Y-26.53
X285.975Y-55.105
X293.119Y-83.68
X293.119Y-131.305
X295.5Y-26.53
X309.152Y-26.53
X309.152Y-55.105
X309.152Y-74.155
X309.152Y-131.305
X319.312Y-26.53
X319.312Y-55.105
X319.312Y-74.155
X319.312Y-131.305
X328.202Y-26.53
X328.202Y-55.105
X328.202Y-74.155
X328.202Y-112.255
X328.202Y-131.305
X338.363Y-26.53
X338.363Y-55.105
X338.363Y-74.155
X338.363Y-112.255
X338.363Y-131.305
X347.252Y-26.53
X347.252Y-55.105
X347.252Y-74.155
X347.252Y-131.305
X357.412Y-26.53
X357.412Y-55.105
X357.412Y-74.155
X357.412Y-131.305
T3
X12.144Y-14.525
X12.144Y-142.637
X180.975Y-14.525
X180.975Y-142.637
X364.094Y-14.525
X364.094Y-142.637
T4
X23.72Y-26.53
X23.72Y-55.105
X26.095Y-93.205
X26.101Y-112.255
X26.101Y-131.305
X28.482Y-74.155
X42.77Y-55.105
X47.532Y-112.255
X49.914Y-131.305
X52.295Y-74.155
X57.057Y-93.205
X61.82Y-26.53
X61.82Y-55.105
X66.582Y-112.255
X71.345Y-74.155
X73.726Y-131.305
X76.108Y-93.205
X80.87Y-26.53
X80.87Y-55.105
X85.632Y-112.255
X90.395Y-74.155
X95.157Y-93.205
X95.158Y-123.05
X99.92Y-26.53
X99.92Y-55.105
X104.682Y-112.255
X109.445Y-74.155
X114.207Y-93.205
X118.97Y-26.53
X118.97Y-55.105
X123.732Y-112.255
X128.495Y-74.155
X133.257Y-93.205
X138.02Y-55.105
X142.782Y-112.255
X145.164Y-131.305
X147.545Y-26.53
X147.545Y-74.155
X152.308Y-93.205
X157.07Y-55.105
X161.832Y-112.255
X166.595Y-26.53
X166.595Y-74.155
X171.357Y-93.205
X176.12Y-55.105
X180.882Y-112.255
X185.645Y-26.53
X185.645Y-74.155
X190.407Y-93.205
X195.17Y-55.105
X195.17Y-123.05
X199.933Y-112.255
X204.695Y-26.53
X204.695Y-74.155
X209.457Y-93.205
X214.22Y-55.105
X216.601Y-131.305
X218.982Y-112.255
X223.745Y-74.155
X228.507Y-93.205
X233.27Y-26.53
X233.27Y-55.105
X238.032Y-112.255
X240.414Y-131.305
X242.795Y-74.155
X247.557Y-93.205
X252.32Y-26.53
X252.32Y-55.105
X261.845Y-74.155
X261.845Y-120.51
X264.226Y-131.305
X266.608Y-93.205
X268.989Y-63.36
X271.37Y-26.53
X273.751Y-112.255
X279.784Y-71.774
X279.784Y-95.586
X280.895Y-55.105
X285.658Y-120.51
X288.039Y-83.68
X288.039Y-131.305
X290.42Y-26.53
X292.801Y-63.36
X314.232Y-26.53
X314.232Y-55.105
X314.232Y-74.155
X314.232Y-131.305
X333.282Y-26.53
X333.282Y-55.105
X333.282Y-74.155
X333.282Y-112.255
X333.282Y-131.305
X352.332Y-26.53
X352.332Y-55.105
X352.332Y-74.155
X352.332Y-131.305
M30
