%TF.GenerationSoftware,KiCad,Pcbnew,9.0.2*%
%TF.CreationDate,2025-07-01T21:42:38+02:00*%
%TF.ProjectId,TKL_PCB,544b4c5f-5043-4422-9e6b-696361645f70,rev?*%
%TF.SameCoordinates,Original*%
%TF.FileFunction,Legend,Top*%
%TF.FilePolarity,Positive*%
%FSLAX46Y46*%
G04 Gerber Fmt 4.6, Leading zero omitted, Abs format (unit mm)*
G04 Created by KiCad (PCBNEW 9.0.2) date 2025-07-01 21:42:38*
%MOMM*%
%LPD*%
G01*
G04 APERTURE LIST*
%ADD10C,0.150000*%
G04 APERTURE END LIST*
D10*
X363331845Y-139642319D02*
X363331845Y-138642319D01*
X363331845Y-139118509D02*
X363903273Y-139118509D01*
X363903273Y-139642319D02*
X363903273Y-138642319D01*
X364808035Y-138642319D02*
X364617559Y-138642319D01*
X364617559Y-138642319D02*
X364522321Y-138689938D01*
X364522321Y-138689938D02*
X364474702Y-138737557D01*
X364474702Y-138737557D02*
X364379464Y-138880414D01*
X364379464Y-138880414D02*
X364331845Y-139070890D01*
X364331845Y-139070890D02*
X364331845Y-139451842D01*
X364331845Y-139451842D02*
X364379464Y-139547080D01*
X364379464Y-139547080D02*
X364427083Y-139594700D01*
X364427083Y-139594700D02*
X364522321Y-139642319D01*
X364522321Y-139642319D02*
X364712797Y-139642319D01*
X364712797Y-139642319D02*
X364808035Y-139594700D01*
X364808035Y-139594700D02*
X364855654Y-139547080D01*
X364855654Y-139547080D02*
X364903273Y-139451842D01*
X364903273Y-139451842D02*
X364903273Y-139213747D01*
X364903273Y-139213747D02*
X364855654Y-139118509D01*
X364855654Y-139118509D02*
X364808035Y-139070890D01*
X364808035Y-139070890D02*
X364712797Y-139023271D01*
X364712797Y-139023271D02*
X364522321Y-139023271D01*
X364522321Y-139023271D02*
X364427083Y-139070890D01*
X364427083Y-139070890D02*
X364379464Y-139118509D01*
X364379464Y-139118509D02*
X364331845Y-139213747D01*
X180213095Y-139642319D02*
X180213095Y-138642319D01*
X180213095Y-139118509D02*
X180784523Y-139118509D01*
X180784523Y-139642319D02*
X180784523Y-138642319D01*
X181736904Y-138642319D02*
X181260714Y-138642319D01*
X181260714Y-138642319D02*
X181213095Y-139118509D01*
X181213095Y-139118509D02*
X181260714Y-139070890D01*
X181260714Y-139070890D02*
X181355952Y-139023271D01*
X181355952Y-139023271D02*
X181594047Y-139023271D01*
X181594047Y-139023271D02*
X181689285Y-139070890D01*
X181689285Y-139070890D02*
X181736904Y-139118509D01*
X181736904Y-139118509D02*
X181784523Y-139213747D01*
X181784523Y-139213747D02*
X181784523Y-139451842D01*
X181784523Y-139451842D02*
X181736904Y-139547080D01*
X181736904Y-139547080D02*
X181689285Y-139594700D01*
X181689285Y-139594700D02*
X181594047Y-139642319D01*
X181594047Y-139642319D02*
X181355952Y-139642319D01*
X181355952Y-139642319D02*
X181260714Y-139594700D01*
X181260714Y-139594700D02*
X181213095Y-139547080D01*
X11381845Y-139642319D02*
X11381845Y-138642319D01*
X11381845Y-139118509D02*
X11953273Y-139118509D01*
X11953273Y-139642319D02*
X11953273Y-138642319D01*
X12858035Y-138975652D02*
X12858035Y-139642319D01*
X12619940Y-138594700D02*
X12381845Y-139308985D01*
X12381845Y-139308985D02*
X13000892Y-139308985D01*
X363331845Y-11529819D02*
X363331845Y-10529819D01*
X363331845Y-11006009D02*
X363903273Y-11006009D01*
X363903273Y-11529819D02*
X363903273Y-10529819D01*
X364284226Y-10529819D02*
X364903273Y-10529819D01*
X364903273Y-10529819D02*
X364569940Y-10910771D01*
X364569940Y-10910771D02*
X364712797Y-10910771D01*
X364712797Y-10910771D02*
X364808035Y-10958390D01*
X364808035Y-10958390D02*
X364855654Y-11006009D01*
X364855654Y-11006009D02*
X364903273Y-11101247D01*
X364903273Y-11101247D02*
X364903273Y-11339342D01*
X364903273Y-11339342D02*
X364855654Y-11434580D01*
X364855654Y-11434580D02*
X364808035Y-11482200D01*
X364808035Y-11482200D02*
X364712797Y-11529819D01*
X364712797Y-11529819D02*
X364427083Y-11529819D01*
X364427083Y-11529819D02*
X364331845Y-11482200D01*
X364331845Y-11482200D02*
X364284226Y-11434580D01*
X180213095Y-11529819D02*
X180213095Y-10529819D01*
X180213095Y-11006009D02*
X180784523Y-11006009D01*
X180784523Y-11529819D02*
X180784523Y-10529819D01*
X181213095Y-10625057D02*
X181260714Y-10577438D01*
X181260714Y-10577438D02*
X181355952Y-10529819D01*
X181355952Y-10529819D02*
X181594047Y-10529819D01*
X181594047Y-10529819D02*
X181689285Y-10577438D01*
X181689285Y-10577438D02*
X181736904Y-10625057D01*
X181736904Y-10625057D02*
X181784523Y-10720295D01*
X181784523Y-10720295D02*
X181784523Y-10815533D01*
X181784523Y-10815533D02*
X181736904Y-10958390D01*
X181736904Y-10958390D02*
X181165476Y-11529819D01*
X181165476Y-11529819D02*
X181784523Y-11529819D01*
X11381845Y-11529819D02*
X11381845Y-10529819D01*
X11381845Y-11006009D02*
X11953273Y-11006009D01*
X11953273Y-11529819D02*
X11953273Y-10529819D01*
X12953273Y-11529819D02*
X12381845Y-11529819D01*
X12667559Y-11529819D02*
X12667559Y-10529819D01*
X12667559Y-10529819D02*
X12572321Y-10672676D01*
X12572321Y-10672676D02*
X12477083Y-10767914D01*
X12477083Y-10767914D02*
X12381845Y-10815533D01*
M02*
