M48
; DRILL file {KiCad 9.0.2} date 2025-07-01T21:42:32+0200
; FORMAT={-:-/ absolute / metric / decimal}
; #@! TF.CreationDate,2025-07-01T21:42:32+02:00
; #@! TF.GenerationSoftware,Kicad,Pcbnew,9.0.2
; #@! TF.FileFunction,Plated,1,2,PTH
FMAT,2
METRIC
; #@! TA.AperFunction,Plated,PTH,ViaDrill
T1C0.300
; #@! TA.AperFunction,Plated,PTH,ComponentDrill
T2C0.600
; #@! TA.AperFunction,Plated,PTH,ComponentDrill
T3C1.000
; #@! TA.AperFunction,Plated,PTH,ComponentDrill
T4C3.000
; #@! TA.AperFunction,Plated,PTH,ComponentDrill
T5C3.048
%
G90
G05
T1
X9.135Y-135.107
X9.635Y-116.007
X10.035Y-96.807
X10.635Y-77.707
X11.335Y-58.807
X13.835Y-135.107
X14.635Y-30.407
X21.535Y-30.407
X22.141Y-58.8
X23.435Y-116.007
X24.235Y-96.907
X26.135Y-77.807
X30.435Y-58.807
X33.435Y-30.307
X36.135Y-116.007
X38.735Y-60.207
X40.481Y-27.923
X40.635Y-58.807
X43.335Y-67.807
X45.602Y-27.923
X45.735Y-116.007
X47.635Y-77.807
X48.635Y-30.307
X49.085Y-77.907
X57.135Y-30.307
X57.335Y-58.807
X58.985Y-30.257
X61.335Y-116.007
X64.335Y-116.007
X64.635Y-60.407
X66.235Y-77.907
X66.657Y-63.584
X67.535Y-68.007
X68.335Y-77.807
X68.835Y-30.207
X71.035Y-125.407
X72.135Y-30.207
X77.835Y-58.807
X80.735Y-58.807
X81.635Y-134.507
X81.835Y-114.807
X81.935Y-68.407
X83.535Y-63.207
X85.335Y-77.607
X86.235Y-30.207
X87.935Y-77.607
X88.935Y-30.207
X95.135Y-58.807
X97.241Y-58.8
X98.035Y-77.807
X101.235Y-114.107
X103.1Y-96.837
X103.981Y-129.381
X107.335Y-103.607
X107.835Y-78.107
X107.95Y-98.425
X109.735Y-115.807
X110.135Y-135.607
X110.935Y-95.607
X111.335Y-118.007
X112.035Y-122.307
X112.735Y-131.607
X112.835Y-124.032
X113.835Y-58.807
X113.984Y-126.586
X114.035Y-30.207
X114.035Y-133.007
X114.164Y-124.836
X114.3Y-121.444
X114.73Y-125.402
X115.635Y-125.607
X116.135Y-131.307
X116.309Y-130.281
X116.435Y-30.207
X116.635Y-58.8
X116.635Y-135.407
X117.155Y-121.304
X117.341Y-118.266
X117.535Y-142.907
X118.435Y-142.907
X119.062Y-119.856
X119.735Y-139.907
X119.856Y-134.144
X119.935Y-124.407
X119.935Y-126.807
X120.335Y-113.807
X120.335Y-130.969
X121.135Y-125.607
X121.444Y-115.887
X122.335Y-124.407
X122.335Y-126.807
X123.004Y-132.584
X123.031Y-118.269
X123.031Y-138.906
X123.435Y-78.007
X123.825Y-117.475
X124.619Y-118.269
X124.619Y-138.906
X124.935Y-115.207
X125.44Y-133.323
X125.6Y-123.007
X125.61Y-129.131
X125.735Y-77.907
X126.235Y-123.607
X126.435Y-129.107
X127.635Y-141.307
X127.635Y-142.807
X127.75Y-123.365
X128.588Y-122.237
X128.635Y-142.807
X128.649Y-141.315
X128.735Y-115.007
X128.835Y-124.307
X128.835Y-131.307
X129.035Y-132.507
X129.335Y-128.807
X129.535Y-141.307
X129.535Y-142.807
X129.735Y-124.307
X129.864Y-125.954
X130.135Y-123.106
X130.435Y-141.207
X130.435Y-142.907
X130.735Y-124.507
X130.835Y-131.107
X131.335Y-139.207
X131.335Y-141.407
X131.935Y-58.907
X132.235Y-140.807
X132.335Y-143.307
X132.471Y-126.627
X132.635Y-132.507
X133.035Y-127.607
X133.535Y-132.607
X133.735Y-125.807
X133.835Y-30.207
X133.935Y-141.007
X133.935Y-143.007
X134.635Y-137.907
X134.935Y-141.407
X135.035Y-140.507
X135.835Y-132.707
X135.935Y-139.307
X136.035Y-58.907
X137.735Y-30.207
X138.935Y-119.607
X139.335Y-138.607
X139.51Y-123.083
X140.235Y-144.707
X141.435Y-135.207
X141.535Y-123.107
X141.635Y-138.107
X142.235Y-139.407
X142.735Y-77.807
X142.935Y-116.207
X144.435Y-118.707
X144.535Y-77.907
X152.135Y-58.807
X152.835Y-30.207
X154.535Y-58.807
X155.735Y-30.307
X155.935Y-122.307
X157.835Y-118.107
X157.835Y-132.407
X157.835Y-136.607
X157.935Y-114.907
X158.935Y-146.007
X161.535Y-77.907
X163.735Y-77.907
X169.235Y-138.107
X171.035Y-58.807
X172.035Y-30.207
X173.535Y-58.807
X175.035Y-30.207
X175.435Y-136.507
X176.835Y-119.307
X176.835Y-134.007
X177.035Y-114.507
X177.735Y-139.407
X180.735Y-77.907
X182.835Y-77.907
X190.135Y-58.707
X190.935Y-30.207
X192.435Y-58.707
X194.335Y-30.207
X196.535Y-114.807
X198.935Y-78.007
X199.035Y-117.507
X202.135Y-77.907
X209.135Y-58.807
X211.735Y-58.807
X212.135Y-30.207
X212.735Y-135.907
X212.835Y-133.707
X216.535Y-30.207
X216.935Y-116.207
X217.435Y-77.907
X221.135Y-77.807
X222.335Y-118.007
X227.935Y-58.807
X230.835Y-58.807
X236.535Y-134.107
X236.535Y-137.107
X236.835Y-77.907
X240.235Y-30.207
X240.235Y-77.807
X244.235Y-30.207
X246.335Y-116.007
X247.035Y-58.807
X249.935Y-116.007
X250.335Y-58.907
X255.335Y-77.907
X259.635Y-77.907
X260.535Y-30.207
X260.635Y-133.407
X262.835Y-30.307
X269.535Y-116.007
X272.735Y-116.007
X275.935Y-58.907
X277.135Y-30.207
X278.135Y-58.907
X282.535Y-30.207
X282.535Y-133.907
X301.435Y-88.207
X308.135Y-30.207
X308.135Y-116.007
X308.835Y-58.807
X310.135Y-136.007
X310.735Y-134.207
X311.635Y-58.807
X312.135Y-30.207
X312.435Y-87.907
X323.135Y-77.907
X323.835Y-137.507
X326.735Y-30.207
X328.135Y-58.807
X328.335Y-134.107
X330.335Y-58.807
X331.135Y-77.907
X331.235Y-30.207
X332.135Y-116.007
X341.935Y-78.007
X346.435Y-30.207
X347.035Y-58.8
X348.935Y-134.307
X349.835Y-58.8
X350.135Y-78.007
X350.335Y-30.207
T3
X105.727Y-138.906
X108.267Y-138.906
X110.808Y-138.906
X113.347Y-138.906
X115.887Y-138.906
T4
X19.91Y-23.99
X19.91Y-52.565
X22.285Y-90.665
X22.291Y-109.715
X22.291Y-128.765
X24.672Y-71.615
X26.26Y-21.45
X26.26Y-50.025
X28.635Y-88.125
X28.641Y-107.175
X28.641Y-126.225
X31.022Y-69.075
X38.96Y-52.565
X43.722Y-109.715
X45.31Y-50.025
X46.104Y-128.765
X48.485Y-71.615
X50.072Y-107.175
X52.454Y-126.225
X53.247Y-90.665
X54.835Y-69.075
X58.01Y-23.99
X58.01Y-52.565
X59.597Y-88.125
X62.772Y-109.715
X64.36Y-21.45
X64.36Y-50.025
X67.535Y-71.615
X69.123Y-107.175
X69.916Y-128.765
X72.297Y-90.665
X73.885Y-69.075
X76.266Y-126.225
X77.06Y-23.99
X77.06Y-52.565
X78.647Y-88.125
X81.822Y-109.715
X83.41Y-21.45
X83.41Y-50.025
X86.585Y-71.615
X88.172Y-107.175
X91.347Y-90.665
X92.935Y-69.075
X96.11Y-23.99
X96.11Y-52.565
X97.697Y-88.125
X100.873Y-109.715
X102.46Y-21.45
X102.46Y-50.025
X105.635Y-71.615
X107.222Y-107.175
X110.397Y-90.665
X111.985Y-69.075
X115.16Y-23.99
X115.16Y-52.565
X116.747Y-88.125
X119.922Y-109.715
X121.51Y-21.45
X121.51Y-50.025
X124.685Y-71.615
X126.272Y-107.175
X129.447Y-90.665
X131.035Y-69.075
X134.21Y-52.565
X135.797Y-88.125
X138.972Y-109.715
X140.56Y-50.025
X141.354Y-128.765
X143.735Y-23.99
X143.735Y-71.615
X145.322Y-107.175
X147.704Y-126.225
X148.498Y-90.665
X150.085Y-21.45
X150.085Y-69.075
X153.26Y-52.565
X154.847Y-88.125
X158.022Y-109.715
X159.61Y-50.025
X162.785Y-23.99
X162.785Y-71.615
X164.373Y-107.175
X167.547Y-90.665
X169.135Y-21.45
X169.135Y-69.075
X172.31Y-52.565
X173.897Y-88.125
X177.072Y-109.715
X178.66Y-50.025
X181.835Y-23.99
X181.835Y-71.615
X183.422Y-107.175
X186.597Y-90.665
X188.185Y-21.45
X188.185Y-69.075
X191.36Y-52.565
X192.947Y-88.125
X196.123Y-109.715
X197.71Y-50.025
X200.885Y-23.99
X200.885Y-71.615
X202.472Y-107.175
X205.647Y-90.665
X207.235Y-21.45
X207.235Y-69.075
X210.41Y-52.565
X211.998Y-88.125
X212.791Y-128.765
X215.172Y-109.715
X216.76Y-50.025
X219.141Y-126.225
X219.935Y-71.615
X221.522Y-107.175
X224.697Y-90.665
X226.285Y-69.075
X229.46Y-23.99
X229.46Y-52.565
X231.047Y-88.125
X234.222Y-109.715
X235.81Y-21.45
X235.81Y-50.025
X236.604Y-128.765
X238.985Y-71.615
X240.572Y-107.175
X242.954Y-126.225
X243.748Y-90.665
X245.335Y-69.075
X248.51Y-23.99
X248.51Y-52.565
X250.097Y-88.125
X254.86Y-21.45
X254.86Y-50.025
X258.035Y-71.615
X260.416Y-128.765
X262.798Y-90.665
X264.385Y-69.075
X266.766Y-126.225
X267.56Y-23.99
X269.147Y-88.125
X269.941Y-109.715
X273.91Y-21.45
X276.291Y-107.175
X277.085Y-52.565
X283.435Y-50.025
X284.229Y-81.14
X284.229Y-128.765
X286.61Y-23.99
X290.579Y-78.6
X290.579Y-126.225
X292.96Y-21.45
X310.423Y-23.99
X310.423Y-52.565
X310.423Y-71.615
X310.423Y-128.765
X316.772Y-21.45
X316.772Y-50.025
X316.772Y-69.075
X316.772Y-126.225
X329.472Y-23.99
X329.472Y-52.565
X329.472Y-71.615
X329.472Y-109.715
X329.472Y-128.765
X335.822Y-21.45
X335.822Y-50.025
X335.822Y-69.075
X335.822Y-107.175
X335.822Y-126.225
X348.522Y-23.99
X348.522Y-52.565
X348.522Y-71.615
X348.522Y-128.765
X354.873Y-21.45
X354.873Y-50.025
X354.873Y-69.075
X354.873Y-126.225
T5
X95.158Y-138.29
X195.17Y-138.29
X261.845Y-105.27
X268.989Y-48.12
X285.658Y-105.27
X292.801Y-48.12
X295.024Y-71.774
X295.024Y-95.586
T2
G00X38.45Y-17.7
M15
G01X38.45Y-18.3
M16
G05
G00X38.45Y-21.63
M15
G01X38.45Y-22.73
M16
G05
G00X47.09Y-17.7
M15
G01X47.09Y-18.3
M16
G05
G00X47.09Y-21.63
M15
G01X47.09Y-22.73
M16
G05
M30
