%TF.GenerationSoftware,KiCad,Pcbnew,9.0.2*%
%TF.CreationDate,2025-07-01T21:42:38+02:00*%
%TF.ProjectId,TKL_PCB,544b4c5f-5043-4422-9e6b-696361645f70,rev?*%
%TF.SameCoordinates,Original*%
%TF.FileFunction,Paste,Bot*%
%TF.FilePolarity,Positive*%
%FSLAX46Y46*%
G04 Gerber Fmt 4.6, Leading zero omitted, Abs format (unit mm)*
G04 Created by KiCad (PCBNEW 9.0.2) date 2025-07-01 21:42:38*
%MOMM*%
%LPD*%
G01*
G04 APERTURE LIST*
G04 Aperture macros list*
%AMRoundRect*
0 Rectangle with rounded corners*
0 $1 Rounding radius*
0 $2 $3 $4 $5 $6 $7 $8 $9 X,Y pos of 4 corners*
0 Add a 4 corners polygon primitive as box body*
4,1,4,$2,$3,$4,$5,$6,$7,$8,$9,$2,$3,0*
0 Add four circle primitives for the rounded corners*
1,1,$1+$1,$2,$3*
1,1,$1+$1,$4,$5*
1,1,$1+$1,$6,$7*
1,1,$1+$1,$8,$9*
0 Add four rect primitives between the rounded corners*
20,1,$1+$1,$2,$3,$4,$5,0*
20,1,$1+$1,$4,$5,$6,$7,0*
20,1,$1+$1,$6,$7,$8,$9,0*
20,1,$1+$1,$8,$9,$2,$3,0*%
G04 Aperture macros list end*
%ADD10RoundRect,0.250000X1.025000X1.000000X-1.025000X1.000000X-1.025000X-1.000000X1.025000X-1.000000X0*%
%ADD11RoundRect,0.225000X0.375000X-0.225000X0.375000X0.225000X-0.375000X0.225000X-0.375000X-0.225000X0*%
%ADD12RoundRect,0.140000X-0.140000X-0.170000X0.140000X-0.170000X0.140000X0.170000X-0.140000X0.170000X0*%
%ADD13RoundRect,0.140000X0.170000X-0.140000X0.170000X0.140000X-0.170000X0.140000X-0.170000X-0.140000X0*%
%ADD14RoundRect,0.135000X0.135000X0.185000X-0.135000X0.185000X-0.135000X-0.185000X0.135000X-0.185000X0*%
%ADD15RoundRect,0.135000X0.035355X-0.226274X0.226274X-0.035355X-0.035355X0.226274X-0.226274X0.035355X0*%
%ADD16RoundRect,0.140000X0.140000X0.170000X-0.140000X0.170000X-0.140000X-0.170000X0.140000X-0.170000X0*%
%ADD17R,1.700000X1.000000*%
%ADD18RoundRect,0.140000X-0.170000X0.140000X-0.170000X-0.140000X0.170000X-0.140000X0.170000X0.140000X0*%
%ADD19RoundRect,0.150000X0.512500X0.150000X-0.512500X0.150000X-0.512500X-0.150000X0.512500X-0.150000X0*%
%ADD20RoundRect,0.135000X-0.185000X0.135000X-0.185000X-0.135000X0.185000X-0.135000X0.185000X0.135000X0*%
%ADD21RoundRect,0.135000X-0.135000X-0.185000X0.135000X-0.185000X0.135000X0.185000X-0.135000X0.185000X0*%
%ADD22R,0.600000X1.450000*%
%ADD23R,0.300000X1.450000*%
%ADD24RoundRect,0.140000X0.219203X0.021213X0.021213X0.219203X-0.219203X-0.021213X-0.021213X-0.219203X0*%
%ADD25RoundRect,0.250000X-0.070711X-0.565685X0.565685X0.070711X0.070711X0.565685X-0.565685X-0.070711X0*%
%ADD26RoundRect,0.150000X-0.625000X0.150000X-0.625000X-0.150000X0.625000X-0.150000X0.625000X0.150000X0*%
%ADD27RoundRect,0.250000X-0.650000X0.350000X-0.650000X-0.350000X0.650000X-0.350000X0.650000X0.350000X0*%
%ADD28RoundRect,0.249999X0.395001X0.395001X-0.395001X0.395001X-0.395001X-0.395001X0.395001X-0.395001X0*%
%ADD29RoundRect,0.050000X0.387500X0.050000X-0.387500X0.050000X-0.387500X-0.050000X0.387500X-0.050000X0*%
%ADD30RoundRect,0.050000X0.050000X0.387500X-0.050000X0.387500X-0.050000X-0.387500X0.050000X-0.387500X0*%
%ADD31RoundRect,0.150000X0.475000X0.150000X-0.475000X0.150000X-0.475000X-0.150000X0.475000X-0.150000X0*%
%ADD32RoundRect,0.162500X0.650000X0.162500X-0.650000X0.162500X-0.650000X-0.162500X0.650000X-0.162500X0*%
%ADD33RoundRect,0.225000X0.225000X0.250000X-0.225000X0.250000X-0.225000X-0.250000X0.225000X-0.250000X0*%
%ADD34RoundRect,0.140000X0.021213X-0.219203X0.219203X-0.021213X-0.021213X0.219203X-0.219203X0.021213X0*%
%ADD35RoundRect,0.250000X-0.625000X0.375000X-0.625000X-0.375000X0.625000X-0.375000X0.625000X0.375000X0*%
G04 APERTURE END LIST*
D10*
%TO.C,MX72*%
X173522500Y-109715000D03*
X186972500Y-107175000D03*
%TD*%
%TO.C,MX53*%
X68747500Y-90665000D03*
X82197500Y-88125000D03*
%TD*%
D11*
%TO.C,D5*%
X122237500Y-30225000D03*
X122237500Y-26925000D03*
%TD*%
%TO.C,D59*%
X193675000Y-96900000D03*
X193675000Y-93600000D03*
%TD*%
%TO.C,D51*%
X29362500Y-96900000D03*
X29362500Y-93600000D03*
%TD*%
D12*
%TO.C,C9*%
X130434646Y-126601094D03*
X131394646Y-126601094D03*
%TD*%
D11*
%TO.C,D2*%
X65087500Y-30225000D03*
X65087500Y-26925000D03*
%TD*%
D10*
%TO.C,MX55*%
X106847500Y-90665000D03*
X120297500Y-88125000D03*
%TD*%
%TO.C,MX64*%
X18741300Y-109715000D03*
X32191300Y-107175000D03*
%TD*%
D11*
%TO.C,D82*%
X219868800Y-135000000D03*
X219868800Y-131700000D03*
%TD*%
%TO.C,D60*%
X212725000Y-96900000D03*
X212725000Y-93600000D03*
%TD*%
%TO.C,D65*%
X50800000Y-115950000D03*
X50800000Y-112650000D03*
%TD*%
%TO.C,D73*%
X203200000Y-115950000D03*
X203200000Y-112650000D03*
%TD*%
D13*
%TO.C,C15*%
X117189750Y-120318650D03*
X117189750Y-119358650D03*
%TD*%
D14*
%TO.C,R2*%
X40834499Y-26633400D03*
X39814501Y-26633400D03*
%TD*%
D11*
%TO.C,D56*%
X136525000Y-96900000D03*
X136525000Y-93600000D03*
%TD*%
%TO.C,D55*%
X117475000Y-96900000D03*
X117475000Y-93600000D03*
%TD*%
D15*
%TO.C,R6*%
X121516252Y-134255018D03*
X122237500Y-133533770D03*
%TD*%
D16*
%TO.C,C1*%
X103749739Y-98185175D03*
X102789739Y-98185175D03*
%TD*%
D11*
%TO.C,D23*%
X141287500Y-58800000D03*
X141287500Y-55500000D03*
%TD*%
D10*
%TO.C,MX54*%
X87797500Y-90665000D03*
X101247500Y-88125000D03*
%TD*%
D11*
%TO.C,D45*%
X246062500Y-77850000D03*
X246062500Y-74550000D03*
%TD*%
D10*
%TO.C,MX75*%
X230672500Y-109715000D03*
X244122500Y-107175000D03*
%TD*%
D17*
%TO.C,SW1*%
X107131250Y-129068750D03*
X100831250Y-129068750D03*
X107131250Y-132868750D03*
X100831250Y-132868750D03*
%TD*%
D10*
%TO.C,MX56*%
X125897500Y-90665000D03*
X139347500Y-88125000D03*
%TD*%
D11*
%TO.C,D32*%
X336550000Y-58800000D03*
X336550000Y-55500000D03*
%TD*%
%TO.C,D14*%
X317500000Y-30225000D03*
X317500000Y-26925000D03*
%TD*%
%TO.C,D7*%
X169862500Y-30225000D03*
X169862500Y-26925000D03*
%TD*%
D10*
%TO.C,MX65*%
X40172500Y-109715000D03*
X53622500Y-107175000D03*
%TD*%
%TO.C,MX73*%
X192572500Y-109715000D03*
X206022500Y-107175000D03*
%TD*%
D11*
%TO.C,D41*%
X169862500Y-77850000D03*
X169862500Y-74550000D03*
%TD*%
%TO.C,D10*%
X236537500Y-30225000D03*
X236537500Y-26925000D03*
%TD*%
D10*
%TO.C,MX44*%
X216385000Y-71615000D03*
X229835000Y-69075000D03*
%TD*%
%TO.C,MX32*%
X325922500Y-52565000D03*
X339372500Y-50025000D03*
%TD*%
%TO.C,MX8*%
X178285000Y-23990000D03*
X191735000Y-21450000D03*
%TD*%
D14*
%TO.C,R7*%
X125152300Y-101590967D03*
X124132302Y-101590967D03*
%TD*%
D11*
%TO.C,D15*%
X336550000Y-30225000D03*
X336550000Y-26925000D03*
%TD*%
D10*
%TO.C,MX15*%
X325922500Y-23990000D03*
X339372500Y-21450000D03*
%TD*%
D18*
%TO.C,C5*%
X120308077Y-131919244D03*
X120308077Y-132879244D03*
%TD*%
D10*
%TO.C,MX17*%
X16360000Y-52565000D03*
X29810000Y-50025000D03*
%TD*%
D11*
%TO.C,D33*%
X355600000Y-58800000D03*
X355600000Y-55500000D03*
%TD*%
%TO.C,D22*%
X122237500Y-58800000D03*
X122237500Y-55500000D03*
%TD*%
%TO.C,D26*%
X198437500Y-58800000D03*
X198437500Y-55500000D03*
%TD*%
D10*
%TO.C,MX83*%
X233053800Y-128765000D03*
X246503800Y-126225000D03*
%TD*%
D11*
%TO.C,D77*%
X336550000Y-115950000D03*
X336550000Y-112650000D03*
%TD*%
D14*
%TO.C,R9*%
X125177655Y-98978881D03*
X124157657Y-98978881D03*
%TD*%
D19*
%TO.C,U2*%
X106181129Y-99802154D03*
X106181129Y-101702154D03*
X103906129Y-100752154D03*
%TD*%
D10*
%TO.C,MX67*%
X78272500Y-109715000D03*
X91722500Y-107175000D03*
%TD*%
%TO.C,MX87*%
X325922500Y-128765000D03*
X339372500Y-126225000D03*
%TD*%
%TO.C,MX82*%
X209241300Y-128765000D03*
X222691300Y-126225000D03*
%TD*%
D11*
%TO.C,D71*%
X165100000Y-115950000D03*
X165100000Y-112650000D03*
%TD*%
%TO.C,D18*%
X46037500Y-58800000D03*
X46037500Y-55500000D03*
%TD*%
D10*
%TO.C,MX26*%
X187810000Y-52565000D03*
X201260000Y-50025000D03*
%TD*%
%TO.C,MX37*%
X83035000Y-71615000D03*
X96485000Y-69075000D03*
%TD*%
%TO.C,MX84*%
X256866300Y-128765000D03*
X270316300Y-126225000D03*
%TD*%
D11*
%TO.C,D8*%
X188912500Y-30225000D03*
X188912500Y-26925000D03*
%TD*%
D10*
%TO.C,MX27*%
X206860000Y-52565000D03*
X220310000Y-50025000D03*
%TD*%
D11*
%TO.C,D52*%
X60325000Y-96900000D03*
X60325000Y-93600000D03*
%TD*%
%TO.C,D58*%
X174625000Y-96900000D03*
X174625000Y-93600000D03*
%TD*%
%TO.C,D86*%
X317500000Y-135000000D03*
X317500000Y-131700000D03*
%TD*%
D13*
%TO.C,C13*%
X122237500Y-117939300D03*
X122237500Y-116979300D03*
%TD*%
D10*
%TO.C,MX19*%
X54460000Y-52565000D03*
X67910000Y-50025000D03*
%TD*%
%TO.C,MX22*%
X111610000Y-52565000D03*
X125060000Y-50025000D03*
%TD*%
D20*
%TO.C,R4*%
X119646646Y-116495794D03*
X119646646Y-117515794D03*
%TD*%
D10*
%TO.C,MX63*%
X259247500Y-90665000D03*
X272697500Y-88125000D03*
%TD*%
D17*
%TO.C,SW2*%
X134118749Y-98930535D03*
X127818751Y-98930535D03*
X134118749Y-102730535D03*
X127818751Y-102730535D03*
%TD*%
D10*
%TO.C,MX57*%
X144947500Y-90665000D03*
X158397500Y-88125000D03*
%TD*%
D11*
%TO.C,D64*%
X29368800Y-115950000D03*
X29368800Y-112650000D03*
%TD*%
D21*
%TO.C,R8*%
X124121262Y-100360420D03*
X125141260Y-100360420D03*
%TD*%
D11*
%TO.C,D24*%
X160337500Y-58800000D03*
X160337500Y-55500000D03*
%TD*%
D10*
%TO.C,MX71*%
X154472500Y-109715000D03*
X167922500Y-107175000D03*
%TD*%
%TO.C,MX24*%
X149710000Y-52565000D03*
X163160000Y-50025000D03*
%TD*%
%TO.C,MX20*%
X73510000Y-52565000D03*
X86960000Y-50025000D03*
%TD*%
%TO.C,MX4*%
X92560000Y-23990000D03*
X106010000Y-21450000D03*
%TD*%
%TO.C,MX2*%
X54460000Y-23990000D03*
X67910000Y-21450000D03*
%TD*%
%TO.C,MX18*%
X35410000Y-52565000D03*
X48860000Y-50025000D03*
%TD*%
%TO.C,MX61*%
X221147500Y-90665000D03*
X234597500Y-88125000D03*
%TD*%
D11*
%TO.C,D6*%
X150812500Y-30225000D03*
X150812500Y-26925000D03*
%TD*%
D10*
%TO.C,MX3*%
X73510000Y-23990000D03*
X86960000Y-21450000D03*
%TD*%
D11*
%TO.C,D85*%
X291306300Y-135000000D03*
X291306300Y-131700000D03*
%TD*%
%TO.C,D49*%
X336550000Y-77850000D03*
X336550000Y-74550000D03*
%TD*%
D12*
%TO.C,C8*%
X126426746Y-122179694D03*
X127386746Y-122179694D03*
%TD*%
D10*
%TO.C,MX38*%
X102085000Y-71615000D03*
X115535000Y-69075000D03*
%TD*%
%TO.C,MX88*%
X344972500Y-128765000D03*
X358422500Y-126225000D03*
%TD*%
D11*
%TO.C,D70*%
X146050000Y-115950000D03*
X146050000Y-112650000D03*
%TD*%
%TO.C,D79*%
X53181300Y-135000000D03*
X53181300Y-131700000D03*
%TD*%
D10*
%TO.C,MX40*%
X140185000Y-71615000D03*
X153635000Y-69075000D03*
%TD*%
D11*
%TO.C,D39*%
X131762500Y-77850000D03*
X131762500Y-74550000D03*
%TD*%
D10*
%TO.C,MX41*%
X159235000Y-71615000D03*
X172685000Y-69075000D03*
%TD*%
D11*
%TO.C,D88*%
X355600000Y-135000000D03*
X355600000Y-131700000D03*
%TD*%
D16*
%TO.C,C7*%
X115936746Y-126573694D03*
X114976746Y-126573694D03*
%TD*%
D10*
%TO.C,MX70*%
X135422500Y-109715000D03*
X148872500Y-107175000D03*
%TD*%
D13*
%TO.C,C4*%
X118268750Y-120336250D03*
X118268750Y-119376250D03*
%TD*%
D10*
%TO.C,MX13*%
X283060000Y-23990000D03*
X296510000Y-21450000D03*
%TD*%
D11*
%TO.C,D48*%
X317500000Y-77850000D03*
X317500000Y-74550000D03*
%TD*%
D13*
%TO.C,C2*%
X108312229Y-100381154D03*
X108312229Y-99421154D03*
%TD*%
D10*
%TO.C,MX42*%
X178285000Y-71615000D03*
X191735000Y-69075000D03*
%TD*%
%TO.C,MX25*%
X168760000Y-52565000D03*
X182210000Y-50025000D03*
%TD*%
%TO.C,MX34*%
X21122500Y-71615000D03*
X34572500Y-69075000D03*
%TD*%
D11*
%TO.C,D81*%
X148431300Y-135000000D03*
X148431300Y-131700000D03*
%TD*%
D10*
%TO.C,MX23*%
X130660000Y-52565000D03*
X144110000Y-50025000D03*
%TD*%
D11*
%TO.C,D76*%
X277018800Y-115950000D03*
X277018800Y-112650000D03*
%TD*%
%TO.C,D36*%
X74612500Y-77850000D03*
X74612500Y-74550000D03*
%TD*%
D22*
%TO.C,J1*%
X39520000Y-23095000D03*
X40320000Y-23095000D03*
D23*
X41520000Y-23095000D03*
X42520000Y-23095000D03*
X43020000Y-23095000D03*
X44020000Y-23095000D03*
D22*
X45220000Y-23095000D03*
X46020000Y-23095000D03*
X46020000Y-23095000D03*
X45220000Y-23095000D03*
D23*
X44520000Y-23095000D03*
X43520000Y-23095000D03*
X42020000Y-23095000D03*
X41020000Y-23095000D03*
D22*
X40320000Y-23095000D03*
X39520000Y-23095000D03*
%TD*%
D21*
%TO.C,R1*%
X45252201Y-26642100D03*
X46272199Y-26642100D03*
%TD*%
D10*
%TO.C,MX52*%
X49697500Y-90665000D03*
X63147500Y-88125000D03*
%TD*%
D11*
%TO.C,D80*%
X76993800Y-135000000D03*
X76993800Y-131700000D03*
%TD*%
%TO.C,D46*%
X265112500Y-77850000D03*
X265112500Y-74550000D03*
%TD*%
D24*
%TO.C,C11*%
X122156787Y-138156405D03*
X121477965Y-137477583D03*
%TD*%
D16*
%TO.C,C12*%
X126686250Y-118268750D03*
X125726250Y-118268750D03*
%TD*%
D11*
%TO.C,D4*%
X103187500Y-30225000D03*
X103187500Y-26925000D03*
%TD*%
D10*
%TO.C,MX74*%
X211622500Y-109715000D03*
X225072500Y-107175000D03*
%TD*%
D11*
%TO.C,D83*%
X243681300Y-135000000D03*
X243681300Y-131700000D03*
%TD*%
%TO.C,D38*%
X112712500Y-77850000D03*
X112712500Y-74550000D03*
%TD*%
D25*
%TO.C,Y1*%
X122491018Y-136015771D03*
X124046653Y-134460136D03*
X125248734Y-135662217D03*
X123693099Y-137217852D03*
%TD*%
D11*
%TO.C,D16*%
X355600000Y-30225000D03*
X355600000Y-26925000D03*
%TD*%
D18*
%TO.C,C16*%
X121262670Y-131930409D03*
X121262670Y-132890409D03*
%TD*%
D11*
%TO.C,D3*%
X84137500Y-30225000D03*
X84137500Y-26925000D03*
%TD*%
D10*
%TO.C,MX35*%
X44935000Y-71615000D03*
X58385000Y-69075000D03*
%TD*%
D26*
%TO.C,J2*%
X40862500Y-38981250D03*
X40862500Y-39981250D03*
X40862500Y-40981250D03*
X40862500Y-41981250D03*
D27*
X44737500Y-37681250D03*
X44737500Y-43281250D03*
%TD*%
D11*
%TO.C,D21*%
X103187500Y-58800000D03*
X103187500Y-55500000D03*
%TD*%
%TO.C,D37*%
X93662500Y-77850000D03*
X93662500Y-74550000D03*
%TD*%
D13*
%TO.C,C14*%
X121211700Y-117955000D03*
X121211700Y-116995000D03*
%TD*%
D10*
%TO.C,MX21*%
X92560000Y-52565000D03*
X106010000Y-50025000D03*
%TD*%
D11*
%TO.C,D61*%
X231775000Y-96900000D03*
X231775000Y-93600000D03*
%TD*%
D10*
%TO.C,MX33*%
X344972500Y-52565000D03*
X358422500Y-50025000D03*
%TD*%
%TO.C,MX78*%
X18741300Y-128765000D03*
X32191300Y-126225000D03*
%TD*%
%TO.C,MX62*%
X240197500Y-90665000D03*
X253647500Y-88125000D03*
%TD*%
%TO.C,MX47*%
X280678800Y-81140000D03*
X294128800Y-78600000D03*
%TD*%
%TO.C,MX45*%
X235435000Y-71615000D03*
X248885000Y-69075000D03*
%TD*%
D20*
%TO.C,R3*%
X109528428Y-132291877D03*
X109528428Y-133311875D03*
%TD*%
D11*
%TO.C,D34*%
X31750000Y-77850000D03*
X31750000Y-74550000D03*
%TD*%
D10*
%TO.C,MX51*%
X18735000Y-90665000D03*
X32185000Y-88125000D03*
%TD*%
D11*
%TO.C,D78*%
X29368800Y-135000000D03*
X29368800Y-131700000D03*
%TD*%
%TO.C,D13*%
X293687500Y-30225000D03*
X293687500Y-26925000D03*
%TD*%
D10*
%TO.C,MX50*%
X344972500Y-71615000D03*
X358422500Y-69075000D03*
%TD*%
D28*
%TO.C,U1*%
X121934646Y-126406794D03*
X121934646Y-124806794D03*
X120334646Y-126406794D03*
X120334646Y-124806794D03*
D29*
X124572146Y-123006794D03*
X124572146Y-123406794D03*
X124572146Y-123806794D03*
X124572146Y-124206794D03*
X124572146Y-124606794D03*
X124572146Y-125006794D03*
X124572146Y-125406794D03*
X124572146Y-125806794D03*
X124572146Y-126206794D03*
X124572146Y-126606794D03*
X124572146Y-127006794D03*
X124572146Y-127406794D03*
X124572146Y-127806794D03*
X124572146Y-128206794D03*
D30*
X123734646Y-129044294D03*
X123334646Y-129044294D03*
X122934646Y-129044294D03*
X122534646Y-129044294D03*
X122134646Y-129044294D03*
X121734646Y-129044294D03*
X121334646Y-129044294D03*
X120934646Y-129044294D03*
X120534646Y-129044294D03*
X120134646Y-129044294D03*
X119734646Y-129044294D03*
X119334646Y-129044294D03*
X118934646Y-129044294D03*
X118534646Y-129044294D03*
D29*
X117697146Y-128206794D03*
X117697146Y-127806794D03*
X117697146Y-127406794D03*
X117697146Y-127006794D03*
X117697146Y-126606794D03*
X117697146Y-126206794D03*
X117697146Y-125806794D03*
X117697146Y-125406794D03*
X117697146Y-125006794D03*
X117697146Y-124606794D03*
X117697146Y-124206794D03*
X117697146Y-123806794D03*
X117697146Y-123406794D03*
X117697146Y-123006794D03*
D30*
X118534646Y-122169294D03*
X118934646Y-122169294D03*
X119334646Y-122169294D03*
X119734646Y-122169294D03*
X120134646Y-122169294D03*
X120534646Y-122169294D03*
X120934646Y-122169294D03*
X121334646Y-122169294D03*
X121734646Y-122169294D03*
X122134646Y-122169294D03*
X122534646Y-122169294D03*
X122934646Y-122169294D03*
X123334646Y-122169294D03*
X123734646Y-122169294D03*
%TD*%
D11*
%TO.C,D53*%
X79375000Y-96900000D03*
X79375000Y-93600000D03*
%TD*%
%TO.C,D44*%
X227012500Y-77850000D03*
X227012500Y-74550000D03*
%TD*%
D10*
%TO.C,MX68*%
X97322500Y-109715000D03*
X110772500Y-107175000D03*
%TD*%
%TO.C,MX46*%
X254485000Y-71615000D03*
X267935000Y-69075000D03*
%TD*%
%TO.C,MX7*%
X159235000Y-23990000D03*
X172685000Y-21450000D03*
%TD*%
D11*
%TO.C,D69*%
X127000000Y-115950000D03*
X127000000Y-112650000D03*
%TD*%
%TO.C,D87*%
X336550000Y-135000000D03*
X336550000Y-131700000D03*
%TD*%
D10*
%TO.C,MX49*%
X325922500Y-71615000D03*
X339372500Y-69075000D03*
%TD*%
%TO.C,MX60*%
X202097500Y-90665000D03*
X215547500Y-88125000D03*
%TD*%
%TO.C,MX77*%
X325922500Y-109715000D03*
X339372500Y-107175000D03*
%TD*%
%TO.C,MX30*%
X273535000Y-52565000D03*
X286985000Y-50025000D03*
%TD*%
D31*
%TO.C,U3*%
X43945000Y-32387500D03*
X43945000Y-33337500D03*
X43945000Y-34287500D03*
X41595000Y-34287500D03*
X41595000Y-33337500D03*
X41595000Y-32387500D03*
%TD*%
D11*
%TO.C,D40*%
X150812500Y-77850000D03*
X150812500Y-74550000D03*
%TD*%
%TO.C,D30*%
X284162500Y-58800000D03*
X284162500Y-55500000D03*
%TD*%
%TO.C,D9*%
X207962500Y-30225000D03*
X207962500Y-26925000D03*
%TD*%
D10*
%TO.C,MX48*%
X306872500Y-71615000D03*
X320322500Y-69075000D03*
%TD*%
D11*
%TO.C,D11*%
X255587500Y-30225000D03*
X255587500Y-26925000D03*
%TD*%
D16*
%TO.C,C6*%
X116167046Y-121900394D03*
X115207046Y-121900394D03*
%TD*%
D10*
%TO.C,MX76*%
X266391300Y-109715000D03*
X279841300Y-107175000D03*
%TD*%
D11*
%TO.C,D67*%
X88900000Y-115950000D03*
X88900000Y-112650000D03*
%TD*%
%TO.C,D31*%
X317500000Y-58800000D03*
X317500000Y-55500000D03*
%TD*%
%TO.C,D54*%
X98425000Y-96900000D03*
X98425000Y-93600000D03*
%TD*%
D10*
%TO.C,MX9*%
X197335000Y-23990000D03*
X210785000Y-21450000D03*
%TD*%
%TO.C,MX79*%
X42553800Y-128765000D03*
X56003800Y-126225000D03*
%TD*%
%TO.C,MX85*%
X280678800Y-128765000D03*
X294128800Y-126225000D03*
%TD*%
%TO.C,MX16*%
X344972500Y-23990000D03*
X358422500Y-21450000D03*
%TD*%
D11*
%TO.C,D19*%
X65087500Y-58800000D03*
X65087500Y-55500000D03*
%TD*%
D32*
%TO.C,U4*%
X137731250Y-114776250D03*
X137731250Y-116046250D03*
X137731250Y-117316250D03*
X137731250Y-118586250D03*
X130556250Y-118586250D03*
X130556250Y-117316250D03*
X130556250Y-116046250D03*
X130556250Y-114776250D03*
%TD*%
D11*
%TO.C,D66*%
X69850000Y-115950000D03*
X69850000Y-112650000D03*
%TD*%
D10*
%TO.C,MX1*%
X16360000Y-23990000D03*
X29810000Y-21450000D03*
%TD*%
%TO.C,MX86*%
X306872500Y-128765000D03*
X320322500Y-126225000D03*
%TD*%
%TO.C,MX69*%
X116372500Y-109715000D03*
X129822500Y-107175000D03*
%TD*%
D11*
%TO.C,D35*%
X55562500Y-77850000D03*
X55562500Y-74550000D03*
%TD*%
D10*
%TO.C,MX43*%
X197335000Y-71615000D03*
X210785000Y-69075000D03*
%TD*%
%TO.C,MX59*%
X183047500Y-90665000D03*
X196497500Y-88125000D03*
%TD*%
%TO.C,MX66*%
X59222500Y-109715000D03*
X72672500Y-107175000D03*
%TD*%
%TO.C,MX81*%
X137803800Y-128765000D03*
X151253800Y-126225000D03*
%TD*%
D11*
%TO.C,D75*%
X241300000Y-115950000D03*
X241300000Y-112650000D03*
%TD*%
%TO.C,D84*%
X267493800Y-135000000D03*
X267493800Y-131700000D03*
%TD*%
D10*
%TO.C,MX36*%
X63985000Y-71615000D03*
X77435000Y-69075000D03*
%TD*%
D11*
%TO.C,D63*%
X269875000Y-96900000D03*
X269875000Y-93600000D03*
%TD*%
%TO.C,D28*%
X236537500Y-58800000D03*
X236537500Y-55500000D03*
%TD*%
D10*
%TO.C,MX29*%
X244960000Y-52565000D03*
X258410000Y-50025000D03*
%TD*%
D11*
%TO.C,D62*%
X250825000Y-96900000D03*
X250825000Y-93600000D03*
%TD*%
%TO.C,D47*%
X291306300Y-87375000D03*
X291306300Y-84075000D03*
%TD*%
D10*
%TO.C,MX5*%
X111610000Y-23990000D03*
X125060000Y-21450000D03*
%TD*%
D11*
%TO.C,D57*%
X155575000Y-96900000D03*
X155575000Y-93600000D03*
%TD*%
%TO.C,D27*%
X217487500Y-58800000D03*
X217487500Y-55500000D03*
%TD*%
%TO.C,D29*%
X255587500Y-58800000D03*
X255587500Y-55500000D03*
%TD*%
%TO.C,D20*%
X84137500Y-58800000D03*
X84137500Y-55500000D03*
%TD*%
%TO.C,D12*%
X274637500Y-30225000D03*
X274637500Y-26925000D03*
%TD*%
D10*
%TO.C,MX28*%
X225910000Y-52565000D03*
X239360000Y-50025000D03*
%TD*%
%TO.C,MX80*%
X66366300Y-128765000D03*
X79816300Y-126225000D03*
%TD*%
D11*
%TO.C,D25*%
X179387500Y-58800000D03*
X179387500Y-55500000D03*
%TD*%
D33*
%TO.C,C3*%
X112815184Y-116222000D03*
X111265184Y-116222000D03*
%TD*%
D10*
%TO.C,MX11*%
X244960000Y-23990000D03*
X258410000Y-21450000D03*
%TD*%
D11*
%TO.C,D68*%
X107950000Y-115950000D03*
X107950000Y-112650000D03*
%TD*%
%TO.C,D43*%
X207962500Y-77850000D03*
X207962500Y-74550000D03*
%TD*%
%TO.C,D17*%
X26987500Y-58800000D03*
X26987500Y-55500000D03*
%TD*%
D34*
%TO.C,C10*%
X125373265Y-137980505D03*
X126052087Y-137301683D03*
%TD*%
D10*
%TO.C,MX39*%
X121135000Y-71615000D03*
X134585000Y-69075000D03*
%TD*%
D11*
%TO.C,D50*%
X355600000Y-77850000D03*
X355600000Y-74550000D03*
%TD*%
D10*
%TO.C,MX31*%
X306872500Y-52565000D03*
X320322500Y-50025000D03*
%TD*%
D11*
%TO.C,D74*%
X222250000Y-115950000D03*
X222250000Y-112650000D03*
%TD*%
D35*
%TO.C,F1*%
X38197100Y-30586401D03*
X38197100Y-33386399D03*
%TD*%
D10*
%TO.C,MX58*%
X163997500Y-90665000D03*
X177447500Y-88125000D03*
%TD*%
%TO.C,MX14*%
X306872500Y-23990000D03*
X320322500Y-21450000D03*
%TD*%
D11*
%TO.C,D1*%
X26987500Y-30225000D03*
X26987500Y-26925000D03*
%TD*%
D10*
%TO.C,MX10*%
X225910000Y-23990000D03*
X239360000Y-21450000D03*
%TD*%
D11*
%TO.C,D72*%
X184150000Y-115950000D03*
X184150000Y-112650000D03*
%TD*%
D10*
%TO.C,MX6*%
X140185000Y-23990000D03*
X153635000Y-21450000D03*
%TD*%
%TO.C,MX12*%
X264010000Y-23990000D03*
X277460000Y-21450000D03*
%TD*%
D20*
%TO.C,R5*%
X118609146Y-116495794D03*
X118609146Y-117515794D03*
%TD*%
D11*
%TO.C,D42*%
X188912500Y-77850000D03*
X188912500Y-74550000D03*
%TD*%
M02*
